<?xml version="1.0" standalone="no"?>
<!DOCTYPE svg PUBLIC "-//W3C//DTD SVG 20010904//EN"
 "http://www.w3.org/TR/2001/REC-SVG-20010904/DTD/svg10.dtd">
<svg version="1.0" xmlns="http://www.w3.org/2000/svg"
 width="250.000000pt" height="250.000000pt" viewBox="0 0 250.000000 250.000000"
 preserveAspectRatio="xMidYMid meet">
<metadata>
Created by potrace 1.11, written by Peter Selinger 2001-2013
</metadata>
<g transform="translate(0.000000,250.000000) scale(0.100000,-0.100000)"
fill="#000000" stroke="none">
<path d="M633 1547 c-24 -24 -40 -47 -35 -51 4 -4 2 -6 -4 -4 -6 2 -98 -84
-204 -189 l-193 -193 96 0 c67 0 97 4 97 12 0 6 3 8 7 4 4 -3 -18 -31 -47 -61
l-54 -55 39 -1 c22 -1 45 0 50 1 26 5 105 4 105 -2 0 -3 -20 -25 -45 -49 -24
-23 -43 -44 -41 -46 7 -7 384 -5 395 1 5 4 12 3 15 -2 3 -5 18 -7 34 -4 l29 4
-1 240 0 240 -44 -47 c-25 -25 -48 -42 -51 -37 -3 6 -6 47 -5 91 1 45 -2 81
-5 81 -3 0 -23 -18 -45 -40 -38 -39 -61 -45 -49 -13 4 10 2 14 -5 9 -6 -3 -14
-2 -17 4 -4 6 -1 9 7 8 10 -2 13 15 13 70 1 39 1 72 0 72 0 0 -19 -20 -42 -43z
m-87 -132 c-1 -8 -5 -17 -8 -21 -5 -4 -4 16 1 34 3 9 9 -1 7 -13z m40 0 c-1
-8 -5 -17 -8 -21 -5 -4 -4 16 1 34 3 9 9 -1 7 -13z m40 -11 c1 -9 0 -13 -4
-10 -3 4 -7 14 -8 22 -1 9 0 13 4 10 3 -4 7 -14 8 -22z m99 -13 c3 -5 2 -12
-3 -15 -5 -3 -9 1 -9 9 0 17 3 19 12 6z m-230 -11 c-3 -5 -12 -10 -18 -10 -7
0 -6 4 3 10 19 12 23 12 15 0z m91 -36 c1 -9 0 -13 -4 -10 -3 4 -7 14 -8 22
-1 9 0 13 4 10 3 -4 7 -14 8 -22z m-120 -9 c-1 -8 -5 -17 -8 -21 -5 -4 -4 16
1 34 3 9 9 -1 7 -13z m88 -13 c3 -5 -1 -9 -9 -9 -8 0 -12 4 -9 9 3 4 7 8 9 8
2 0 6 -4 9 -8z m-44 -42 c0 -5 -2 -10 -4 -10 -3 0 -8 5 -11 10 -3 6 -1 10 4
10 6 0 11 -4 11 -10z m-86 -38 c2 -4 -5 -9 -17 -9 -17 -2 -19 0 -7 7 18 12 18
12 24 2z m-39 -41 c-9 -8 -36 -10 -30 -2 2 4 11 8 20 8 8 0 13 -3 10 -6z m61
-3 c3 -4 -1 -5 -10 -4 -8 1 -18 5 -22 8 -3 4 1 5 10 4 8 -1 18 -5 22 -8z
m-140 -23 c-1 -8 -5 -17 -8 -21 -5 -4 -4 16 1 34 3 9 9 -1 7 -13z m80 -17 c3
-4 -1 -5 -10 -4 -8 1 -18 5 -22 8 -3 4 1 5 10 4 8 -1 18 -5 22 -8z"/>
<path d="M1305 1461 c-14 -13 -2 -31 20 -31 17 0 25 5 25 18 0 16 -33 26 -45
13z"/>
<path d="M1388 1453 c-16 -4 -18 -18 -18 -124 l0 -119 25 0 25 0 0 119 c0 66
-3 122 -7 124 -5 2 -16 2 -25 0z"/>
<path d="M1030 1330 l0 -120 43 0 c66 0 77 18 77 128 0 104 -6 112 -79 112
l-41 0 0 -120z m70 0 c0 -38 -4 -72 -10 -75 -6 -4 -10 23 -10 75 0 52 4 79 10
75 6 -3 10 -37 10 -75z"/>
<path d="M1570 1331 l0 -121 25 0 c23 0 25 4 26 43 l1 42 10 -42 c8 -36 13
-43 34 -43 l24 0 0 120 0 120 -25 0 c-22 0 -25 -4 -25 -37 0 -42 -7 -41 -13 2
-3 24 -9 31 -30 33 l-27 3 0 -120z"/>
<path d="M1180 1400 c-11 -11 -17 -26 -14 -35 8 -20 40 -19 48 1 3 8 10 13 15
9 17 -10 1 -32 -30 -45 -33 -14 -47 -50 -33 -89 9 -23 15 -26 65 -28 l56 -2
-2 91 c-1 76 -5 93 -20 104 -27 20 -62 17 -85 -6z m53 -137 c-9 -22 -23 -14
-19 10 3 12 5 27 6 32 1 6 5 1 9 -10 5 -11 6 -26 4 -32z"/>
<path d="M1300 1313 l0 -103 25 0 25 0 0 105 0 105 -25 -2 c-25 -2 -25 -3 -25
-105z"/>
<path d="M1439 1414 c-5 -15 -4 -33 3 -64 20 -97 20 -131 1 -145 -20 -15 -16
-24 17 -30 50 -10 63 17 85 175 4 25 7 49 8 54 3 13 -37 16 -45 3 -4 -7 -8
-32 -8 -56 0 -54 -6 -51 -15 9 -4 25 -9 47 -11 49 -6 7 -34 10 -35 5z"/>
<path d="M1725 1406 c-17 -12 -20 -26 -19 -89 1 -87 12 -107 59 -107 36 0 58
20 63 57 2 21 0 24 -25 21 -20 -2 -27 -8 -25 -20 4 -25 -14 -23 -21 2 -5 19
12 42 29 39 39 -7 47 1 41 43 -8 62 -56 88 -102 54z m51 -51 c-2 -14 -16 -22
-16 -10 0 3 0 12 0 21 0 8 4 13 9 10 5 -4 8 -13 7 -21z"/>
<path d="M1846 1412 c-3 -5 0 -52 6 -106 l12 -97 29 3 c27 3 30 7 34 43 5 49
13 58 14 17 1 -18 2 -38 3 -44 0 -7 13 -14 29 -16 22 -3 27 1 27 17 0 12 0 22
1 24 1 1 7 37 13 79 12 74 11 78 -7 84 -24 8 -37 -10 -37 -55 0 -45 -7 -37
-12 13 -3 31 -8 40 -25 42 -18 3 -23 -3 -31 -39 l-10 -42 -1 36 c-1 24 -7 39
-17 43 -20 8 -22 8 -28 -2z"/>
<path d="M2063 1412 c-6 -4 -17 -20 -23 -36 -10 -26 -7 -32 28 -65 21 -20 37
-42 34 -49 -6 -18 -20 -14 -18 5 1 20 -31 30 -46 15 -16 -16 13 -65 45 -73 21
-6 34 -2 54 15 21 19 24 27 18 54 -4 19 -19 42 -36 54 -16 12 -29 29 -29 37 1
13 2 13 11 -1 12 -22 59 -24 59 -3 0 37 -63 68 -97 47z"/>
<path d="M1433 1083 c-20 -8 -16 -53 5 -53 14 0 15 2 2 10 -12 8 -13 13 -2 30
7 11 11 20 10 19 -2 0 -9 -3 -15 -6z"/>
<path d="M1036 1073 c-3 -3 -6 -11 -6 -17 0 -6 5 -4 10 4 8 13 10 13 10 -2 0
-9 4 -19 9 -22 5 -4 7 3 4 14 -6 23 -17 33 -27 23z"/>
<path d="M1080 1055 c0 -14 4 -25 9 -25 4 0 6 11 3 25 -2 14 -6 25 -8 25 -2 0
-4 -11 -4 -25z"/>
<path d="M1128 1068 c-8 -20 2 -38 20 -38 16 1 16 1 0 11 -10 5 -15 16 -12 24
4 8 4 15 1 15 -3 0 -7 -6 -9 -12z"/>
<path d="M1221 1053 c0 -25 1 -26 9 -8 12 27 12 35 0 35 -5 0 -10 -12 -9 -27z"/>
<path d="M1253 1069 c-13 -13 -6 -39 9 -39 7 0 6 5 -1 13 -8 10 -7 17 1 25 7
7 10 12 7 12 -3 0 -10 -5 -16 -11z"/>
<path d="M1300 1061 c0 -11 3 -22 8 -24 4 -3 7 6 7 19 0 13 -3 24 -7 24 -5 0
-8 -9 -8 -19z"/>
<path d="M1335 1055 c0 -13 3 -21 8 -18 4 2 7 10 7 18 0 8 -3 16 -7 18 -5 3
-8 -5 -8 -18z"/>
<path d="M1360 1069 c0 -5 4 -8 9 -4 5 3 12 -4 16 -15 6 -20 25 -19 25 1 0 6
-4 8 -9 5 -5 -3 -11 1 -15 9 -6 17 -26 20 -26 4z"/>
<path d="M1492 1055 c0 -16 2 -22 5 -12 2 9 2 23 0 30 -3 6 -5 -1 -5 -18z"/>
<path d="M1513 1065 c0 -8 4 -15 9 -15 4 0 8 7 8 15 0 8 -4 15 -8 15 -5 0 -9
-7 -9 -15z"/>
<path d="M1541 1064 c0 -11 3 -14 6 -6 3 7 2 16 -1 19 -3 4 -6 -2 -5 -13z"/>
<path d="M1600 1073 c0 -6 -3 -20 -6 -30 -5 -15 -4 -16 5 -3 10 13 12 13 21 0
5 -8 10 -10 10 -4 0 5 -7 19 -15 30 -8 10 -15 14 -15 7z"/>
<path d="M1644 1065 c-8 -19 4 -35 24 -34 14 1 14 2 -1 6 -13 3 -17 11 -14 24
6 22 -1 26 -9 4z"/>
<path d="M1701 1058 c-1 -21 4 -28 17 -28 11 0 13 3 6 8 -7 4 -14 16 -17 27
-4 15 -5 14 -6 -7z"/>
<path d="M1558 1033 c7 -3 16 -2 19 1 4 3 -2 6 -13 5 -11 0 -14 -3 -6 -6z"/>
</g>
</svg>
